<svg width="72" height="56" viewBox="0 0 72 56" fill="none" xmlns="http://www.w3.org/2000/svg">
  <path d="M 22,14 C 28,11 44,11 50,14 M 55,20 C 59,28 60,36 57,42 C 53,46 49,48 45,49 L 42,44 C 38,46 34,46 30,44 L 27,49 C 23,48 19,46 15,42 C 12,36 13,28 17,20 M 27,30 A 3,3 0 1 0 27,36 A 3,3 0 1 0 27,30 M 45,30 A 3,3 0 1 0 45,36 A 3,3 0 1 0 45,30 M 9,37 A 28,25 0 0 1 12,20 L 8,22 M 63,19 A 28,25 0 0 1 64,38 L 68,35" stroke="#5865F2" stroke-width="2.6" stroke-linecap="round" stroke-linejoin="round" />
</svg>
